<mxfile host="app.diagrams.net" agent="Mozilla/5.0 (Windows NT 10.0; Win64; x64) AppleWebKit/537.36 (KHTML, like Gecko) Chrome/128.0.0.0 Safari/537.36" version="24.7.13">
  <diagram name="第 1 页" id="FnNnPvex6p6FiYV9A6Ly">
    <mxGraphModel dx="989" dy="538" grid="1" gridSize="10" guides="1" tooltips="1" connect="1" arrows="1" fold="1" page="1" pageScale="1" pageWidth="1169" pageHeight="827" math="0" shadow="0">
      <root>
        <mxCell id="0" />
        <mxCell id="1" parent="0" />
        <mxCell id="mtvK1GjAVpGi9GXHnzt9-1" value="" style="edgeStyle=orthogonalEdgeStyle;shape=connector;curved=0;rounded=1;orthogonalLoop=1;jettySize=auto;html=1;shadow=0;strokeColor=#6c8ebf;strokeWidth=1.9685;align=center;verticalAlign=middle;fontFamily=Helvetica;fontSize=13;fontColor=default;labelBackgroundColor=none;endArrow=classic;fillColor=#dae8fc;fontStyle=1" parent="1" source="mtvK1GjAVpGi9GXHnzt9-2" target="mtvK1GjAVpGi9GXHnzt9-4" edge="1">
          <mxGeometry relative="1" as="geometry" />
        </mxCell>
        <mxCell id="mtvK1GjAVpGi9GXHnzt9-2" value="明文" style="rounded=1;whiteSpace=wrap;html=1;fontFamily=Helvetica;fontSize=13;fontColor=default;labelBackgroundColor=none;strokeColor=default;align=center;verticalAlign=middle;fillColor=default;fontStyle=1" parent="1" vertex="1">
          <mxGeometry x="317.5" y="510" width="50" height="30" as="geometry" />
        </mxCell>
        <mxCell id="mtvK1GjAVpGi9GXHnzt9-3" value="" style="edgeStyle=orthogonalEdgeStyle;shape=connector;curved=0;rounded=1;orthogonalLoop=1;jettySize=auto;html=1;shadow=0;strokeColor=#6c8ebf;strokeWidth=1.9685;align=center;verticalAlign=middle;fontFamily=Helvetica;fontSize=13;fontColor=default;labelBackgroundColor=none;endArrow=classic;fillColor=#dae8fc;fontStyle=1" parent="1" source="mtvK1GjAVpGi9GXHnzt9-4" target="mtvK1GjAVpGi9GXHnzt9-6" edge="1">
          <mxGeometry relative="1" as="geometry" />
        </mxCell>
        <mxCell id="mtvK1GjAVpGi9GXHnzt9-4" value="私钥签名" style="whiteSpace=wrap;html=1;fontSize=13;rounded=1;labelBackgroundColor=none;strokeColor=default;align=center;verticalAlign=middle;fontFamily=Helvetica;fontColor=default;fillColor=default;fontStyle=1" parent="1" vertex="1">
          <mxGeometry x="405.5" y="510" width="70" height="30" as="geometry" />
        </mxCell>
        <mxCell id="mtvK1GjAVpGi9GXHnzt9-5" value="" style="edgeStyle=orthogonalEdgeStyle;shape=connector;curved=0;rounded=1;orthogonalLoop=1;jettySize=auto;html=1;shadow=0;strokeColor=#6c8ebf;strokeWidth=1.9685;align=center;verticalAlign=middle;fontFamily=Helvetica;fontSize=13;fontColor=default;labelBackgroundColor=none;endArrow=classic;fillColor=#dae8fc;fontStyle=1" parent="1" source="mtvK1GjAVpGi9GXHnzt9-6" target="mtvK1GjAVpGi9GXHnzt9-8" edge="1">
          <mxGeometry relative="1" as="geometry" />
        </mxCell>
        <mxCell id="mtvK1GjAVpGi9GXHnzt9-6" value="密文" style="whiteSpace=wrap;html=1;fontSize=13;rounded=1;labelBackgroundColor=none;strokeColor=default;align=center;verticalAlign=middle;fontFamily=Helvetica;fontColor=default;fillColor=default;fontStyle=1" parent="1" vertex="1">
          <mxGeometry x="512.5" y="510" width="50" height="30" as="geometry" />
        </mxCell>
        <mxCell id="mtvK1GjAVpGi9GXHnzt9-7" value="" style="edgeStyle=orthogonalEdgeStyle;shape=connector;curved=0;rounded=1;orthogonalLoop=1;jettySize=auto;html=1;shadow=0;strokeColor=#6c8ebf;strokeWidth=1.9685;align=center;verticalAlign=middle;fontFamily=Helvetica;fontSize=13;fontColor=default;labelBackgroundColor=none;endArrow=classic;fillColor=#dae8fc;fontStyle=1" parent="1" source="mtvK1GjAVpGi9GXHnzt9-8" target="mtvK1GjAVpGi9GXHnzt9-10" edge="1">
          <mxGeometry relative="1" as="geometry" />
        </mxCell>
        <mxCell id="mtvK1GjAVpGi9GXHnzt9-8" value="公钥验签" style="whiteSpace=wrap;html=1;fontSize=13;rounded=1;labelBackgroundColor=none;strokeColor=default;align=center;verticalAlign=middle;fontFamily=Helvetica;fontColor=default;fillColor=default;fontStyle=1" parent="1" vertex="1">
          <mxGeometry x="634.5" y="510" width="70" height="30" as="geometry" />
        </mxCell>
        <mxCell id="mtvK1GjAVpGi9GXHnzt9-9" style="edgeStyle=orthogonalEdgeStyle;shape=connector;curved=0;rounded=1;orthogonalLoop=1;jettySize=auto;html=1;entryX=0;entryY=0.5;entryDx=0;entryDy=0;shadow=0;strokeColor=#6c8ebf;strokeWidth=1.9685;align=center;verticalAlign=middle;fontFamily=Helvetica;fontSize=13;fontColor=default;labelBackgroundColor=none;autosize=1;resizable=0;endArrow=classic;fillColor=#dae8fc;fontStyle=1" parent="1" source="mtvK1GjAVpGi9GXHnzt9-10" target="mtvK1GjAVpGi9GXHnzt9-31" edge="1">
          <mxGeometry relative="1" as="geometry" />
        </mxCell>
        <mxCell id="mtvK1GjAVpGi9GXHnzt9-10" value="明文" style="whiteSpace=wrap;html=1;fontSize=13;rounded=1;labelBackgroundColor=none;strokeColor=default;align=center;verticalAlign=middle;fontFamily=Helvetica;fontColor=default;fillColor=default;fontStyle=1" parent="1" vertex="1">
          <mxGeometry x="741.5" y="510" width="50" height="30" as="geometry" />
        </mxCell>
        <mxCell id="mtvK1GjAVpGi9GXHnzt9-11" value="B-&amp;gt;SEND" style="text;html=1;align=left;verticalAlign=middle;resizable=0;points=[];autosize=1;strokeColor=none;fillColor=none;fontSize=13;fontColor=#0070F2;fontFamily=Helvetica;fontStyle=1;rounded=1;labelBackgroundColor=none;" parent="1" vertex="1">
          <mxGeometry x="317.5" y="470" width="80" height="30" as="geometry" />
        </mxCell>
        <mxCell id="mtvK1GjAVpGi9GXHnzt9-12" value="A-&amp;gt;RECV" style="text;html=1;align=right;verticalAlign=middle;resizable=0;points=[];autosize=1;strokeColor=none;fillColor=none;fontSize=13;fontColor=#0070F2;fontFamily=Helvetica;fontStyle=1;rounded=1;labelBackgroundColor=none;" parent="1" vertex="1">
          <mxGeometry x="711.5" y="470" width="80" height="30" as="geometry" />
        </mxCell>
        <mxCell id="mtvK1GjAVpGi9GXHnzt9-13" style="edgeStyle=orthogonalEdgeStyle;shape=connector;curved=0;rounded=1;orthogonalLoop=1;jettySize=auto;html=1;exitX=0.5;exitY=1;exitDx=0;exitDy=0;entryX=0.5;entryY=0;entryDx=0;entryDy=0;shadow=0;strokeColor=#82b366;strokeWidth=1.9685;align=center;verticalAlign=middle;fontFamily=Helvetica;fontSize=13;fontColor=default;labelBackgroundColor=none;autosize=1;resizable=0;endArrow=classic;fillColor=#d5e8d4;fontStyle=1" parent="1" source="mtvK1GjAVpGi9GXHnzt9-15" target="mtvK1GjAVpGi9GXHnzt9-17" edge="1">
          <mxGeometry relative="1" as="geometry" />
        </mxCell>
        <mxCell id="mtvK1GjAVpGi9GXHnzt9-14" value="" style="edgeStyle=orthogonalEdgeStyle;shape=connector;curved=0;rounded=1;orthogonalLoop=1;jettySize=auto;html=1;shadow=0;strokeColor=#82b366;strokeWidth=1.9685;align=center;verticalAlign=middle;fontFamily=Helvetica;fontSize=13;fontColor=default;labelBackgroundColor=none;autosize=1;resizable=0;endArrow=classic;fillColor=#d5e8d4;fontStyle=1" parent="1" source="mtvK1GjAVpGi9GXHnzt9-15" target="mtvK1GjAVpGi9GXHnzt9-38" edge="1">
          <mxGeometry relative="1" as="geometry" />
        </mxCell>
        <mxCell id="mtvK1GjAVpGi9GXHnzt9-15" value="CA" style="whiteSpace=wrap;html=1;fontFamily=Helvetica;fontSize=13;labelBackgroundColor=none;rounded=1;fillColor=#d5e8d4;strokeColor=#82b366;fontStyle=1" parent="1" vertex="1">
          <mxGeometry x="507.5" y="190" width="60" height="30" as="geometry" />
        </mxCell>
        <mxCell id="mtvK1GjAVpGi9GXHnzt9-16" value="" style="edgeStyle=orthogonalEdgeStyle;shape=connector;curved=0;rounded=1;orthogonalLoop=1;jettySize=auto;html=1;shadow=0;strokeColor=#82b366;strokeWidth=1.9685;align=center;verticalAlign=middle;fontFamily=Helvetica;fontSize=13;fontColor=default;labelBackgroundColor=none;autosize=1;resizable=0;endArrow=classic;fillColor=#d5e8d4;fontStyle=1" parent="1" source="mtvK1GjAVpGi9GXHnzt9-17" target="mtvK1GjAVpGi9GXHnzt9-19" edge="1">
          <mxGeometry relative="1" as="geometry" />
        </mxCell>
        <mxCell id="mtvK1GjAVpGi9GXHnzt9-17" value="CA私钥" style="whiteSpace=wrap;html=1;fontFamily=Helvetica;fontSize=13;labelBackgroundColor=none;rounded=1;fillColor=#d5e8d4;strokeColor=#82b366;fontStyle=1" parent="1" vertex="1">
          <mxGeometry x="507.5" y="250" width="60" height="30" as="geometry" />
        </mxCell>
        <mxCell id="mtvK1GjAVpGi9GXHnzt9-18" style="edgeStyle=orthogonalEdgeStyle;shape=connector;curved=0;rounded=1;orthogonalLoop=1;jettySize=auto;html=1;shadow=0;strokeColor=#82b366;strokeWidth=1.9685;align=center;verticalAlign=middle;fontFamily=Helvetica;fontSize=13;fontColor=default;labelBackgroundColor=none;autosize=1;resizable=0;endArrow=classic;fillColor=#d5e8d4;fontStyle=1" parent="1" source="mtvK1GjAVpGi9GXHnzt9-19" target="mtvK1GjAVpGi9GXHnzt9-35" edge="1">
          <mxGeometry relative="1" as="geometry" />
        </mxCell>
        <mxCell id="mtvK1GjAVpGi9GXHnzt9-19" value="自签名证书" style="whiteSpace=wrap;html=1;fontSize=13;fillColor=#d5e8d4;strokeColor=#82b366;labelBackgroundColor=none;rounded=1;fontStyle=1" parent="1" vertex="1">
          <mxGeometry x="497.5" y="300" width="80" height="30" as="geometry" />
        </mxCell>
        <mxCell id="mtvK1GjAVpGi9GXHnzt9-20" value="" style="edgeStyle=orthogonalEdgeStyle;shape=connector;curved=0;rounded=1;orthogonalLoop=1;jettySize=auto;html=1;shadow=0;strokeColor=#6c8ebf;strokeWidth=1.9685;align=center;verticalAlign=middle;fontFamily=Helvetica;fontSize=13;fontColor=default;labelBackgroundColor=none;autosize=1;resizable=0;endArrow=classic;fillColor=#dae8fc;fontStyle=1" parent="1" source="mtvK1GjAVpGi9GXHnzt9-22" target="mtvK1GjAVpGi9GXHnzt9-30" edge="1">
          <mxGeometry relative="1" as="geometry" />
        </mxCell>
        <mxCell id="mtvK1GjAVpGi9GXHnzt9-21" style="edgeStyle=orthogonalEdgeStyle;shape=connector;curved=0;rounded=1;orthogonalLoop=1;jettySize=auto;html=1;entryX=0;entryY=0.5;entryDx=0;entryDy=0;shadow=0;strokeColor=#6c8ebf;strokeWidth=1.9685;align=center;verticalAlign=middle;fontFamily=Helvetica;fontSize=13;fontColor=default;labelBackgroundColor=none;autosize=1;resizable=0;endArrow=classic;fillColor=#dae8fc;fontStyle=1" parent="1" source="mtvK1GjAVpGi9GXHnzt9-22" target="mtvK1GjAVpGi9GXHnzt9-2" edge="1">
          <mxGeometry relative="1" as="geometry" />
        </mxCell>
        <mxCell id="mtvK1GjAVpGi9GXHnzt9-22" value="B" style="ellipse;whiteSpace=wrap;html=1;align=center;verticalAlign=middle;fontFamily=Helvetica;fontSize=13;fontColor=default;labelBackgroundColor=none;autosize=1;resizable=0;fillColor=none;gradientColor=none;rounded=1;fontStyle=1" parent="1" vertex="1">
          <mxGeometry x="210" y="510" width="30" height="30" as="geometry" />
        </mxCell>
        <mxCell id="mtvK1GjAVpGi9GXHnzt9-23" style="edgeStyle=orthogonalEdgeStyle;shape=connector;curved=0;rounded=1;orthogonalLoop=1;jettySize=auto;html=1;shadow=0;strokeColor=#b85450;strokeWidth=1.9685;align=center;verticalAlign=middle;fontFamily=Helvetica;fontSize=13;fontColor=default;labelBackgroundColor=none;autosize=1;resizable=0;endArrow=block;fillColor=#f8cecc;dashed=1;dashPattern=1 4;endFill=0;startArrow=oval;startFill=1;fontStyle=1" parent="1" source="mtvK1GjAVpGi9GXHnzt9-25" target="mtvK1GjAVpGi9GXHnzt9-33" edge="1">
          <mxGeometry relative="1" as="geometry" />
        </mxCell>
        <mxCell id="mtvK1GjAVpGi9GXHnzt9-24" value="不直接传递" style="edgeLabel;html=1;align=center;verticalAlign=middle;resizable=0;points=[];rounded=1;fontFamily=Helvetica;fontSize=13;labelBackgroundColor=none;autosize=1;fillColor=#f8cecc;strokeColor=#b85450;fontStyle=1" parent="mtvK1GjAVpGi9GXHnzt9-23" vertex="1" connectable="0">
          <mxGeometry x="-0.4293" y="-1" width="90" height="30" relative="1" as="geometry">
            <mxPoint x="24" y="-16" as="offset" />
          </mxGeometry>
        </mxCell>
        <mxCell id="mtvK1GjAVpGi9GXHnzt9-25" value="B公钥" style="whiteSpace=wrap;html=1;fontSize=13;fillColor=none;labelBackgroundColor=none;autosize=1;resizable=0;gradientColor=none;rounded=1;fontStyle=1" parent="1" vertex="1">
          <mxGeometry x="312.5" y="430" width="60" height="30" as="geometry" />
        </mxCell>
        <mxCell id="mtvK1GjAVpGi9GXHnzt9-26" style="edgeStyle=orthogonalEdgeStyle;shape=connector;rounded=1;orthogonalLoop=1;jettySize=auto;html=1;exitX=0.5;exitY=0;exitDx=0;exitDy=0;entryX=0;entryY=0.5;entryDx=0;entryDy=0;shadow=0;strokeColor=#6c8ebf;strokeWidth=1.9685;align=center;verticalAlign=middle;fontFamily=Helvetica;fontSize=13;fontColor=default;labelBackgroundColor=none;autosize=1;resizable=0;endArrow=classic;fillColor=#dae8fc;fontStyle=1" parent="1" source="mtvK1GjAVpGi9GXHnzt9-30" target="mtvK1GjAVpGi9GXHnzt9-35" edge="1">
          <mxGeometry relative="1" as="geometry" />
        </mxCell>
        <mxCell id="mtvK1GjAVpGi9GXHnzt9-27" value="证书签名请求" style="edgeLabel;html=1;align=center;verticalAlign=middle;resizable=0;points=[];rounded=1;fontFamily=Helvetica;fontSize=13;fontColor=default;labelBackgroundColor=none;autosize=1;fillColor=none;gradientColor=none;fontStyle=1" parent="mtvK1GjAVpGi9GXHnzt9-26" vertex="1" connectable="0">
          <mxGeometry x="0.1747" y="-3" width="100" height="30" relative="1" as="geometry">
            <mxPoint x="-45" y="-33" as="offset" />
          </mxGeometry>
        </mxCell>
        <mxCell id="mtvK1GjAVpGi9GXHnzt9-28" style="edgeStyle=orthogonalEdgeStyle;shape=connector;curved=0;rounded=1;orthogonalLoop=1;jettySize=auto;html=1;exitX=1;exitY=0.5;exitDx=0;exitDy=0;shadow=0;strokeColor=#6c8ebf;strokeWidth=1.9685;align=center;verticalAlign=middle;fontFamily=Helvetica;fontSize=13;fontColor=default;labelBackgroundColor=none;autosize=1;resizable=0;endArrow=classic;fillColor=#dae8fc;fontStyle=1" parent="1" source="mtvK1GjAVpGi9GXHnzt9-30" target="mtvK1GjAVpGi9GXHnzt9-25" edge="1">
          <mxGeometry relative="1" as="geometry" />
        </mxCell>
        <mxCell id="mtvK1GjAVpGi9GXHnzt9-29" value="RSA" style="edgeLabel;html=1;align=center;verticalAlign=middle;resizable=0;points=[];rounded=1;fontFamily=Helvetica;fontSize=13;fontColor=default;labelBackgroundColor=none;autosize=1;fillColor=none;gradientColor=none;fontStyle=1" parent="mtvK1GjAVpGi9GXHnzt9-28" vertex="1" connectable="0">
          <mxGeometry x="0.0123" y="-4" width="50" height="30" relative="1" as="geometry">
            <mxPoint x="-29" y="-35" as="offset" />
          </mxGeometry>
        </mxCell>
        <mxCell id="mtvK1GjAVpGi9GXHnzt9-30" value="B私钥" style="whiteSpace=wrap;html=1;fontSize=13;fillColor=none;labelBackgroundColor=none;autosize=1;resizable=0;gradientColor=none;rounded=1;fontStyle=1" parent="1" vertex="1">
          <mxGeometry x="195" y="430" width="60" height="30" as="geometry" />
        </mxCell>
        <mxCell id="mtvK1GjAVpGi9GXHnzt9-31" value="A" style="ellipse;whiteSpace=wrap;html=1;align=center;verticalAlign=middle;fontFamily=Helvetica;fontSize=13;fontColor=default;labelBackgroundColor=none;autosize=1;resizable=0;fillColor=none;gradientColor=none;rounded=1;fontStyle=1" parent="1" vertex="1">
          <mxGeometry x="838.5" y="510" width="30" height="30" as="geometry" />
        </mxCell>
        <mxCell id="mtvK1GjAVpGi9GXHnzt9-32" style="edgeStyle=orthogonalEdgeStyle;shape=connector;curved=0;rounded=1;orthogonalLoop=1;jettySize=auto;html=1;exitX=0.5;exitY=1;exitDx=0;exitDy=0;entryX=0.5;entryY=0;entryDx=0;entryDy=0;shadow=0;strokeColor=#6c8ebf;strokeWidth=1.9685;align=center;verticalAlign=middle;fontFamily=Helvetica;fontSize=13;fontColor=default;labelBackgroundColor=none;autosize=1;resizable=0;endArrow=classic;fillColor=#dae8fc;fontStyle=1" parent="1" source="mtvK1GjAVpGi9GXHnzt9-33" target="mtvK1GjAVpGi9GXHnzt9-8" edge="1">
          <mxGeometry relative="1" as="geometry" />
        </mxCell>
        <mxCell id="mtvK1GjAVpGi9GXHnzt9-33" value="B公钥" style="whiteSpace=wrap;html=1;fontSize=13;fillColor=none;labelBackgroundColor=none;autosize=1;resizable=0;gradientColor=none;rounded=1;fontStyle=1" parent="1" vertex="1">
          <mxGeometry x="639.5" y="430" width="60" height="30" as="geometry" />
        </mxCell>
        <mxCell id="mtvK1GjAVpGi9GXHnzt9-34" style="edgeStyle=orthogonalEdgeStyle;shape=connector;curved=0;rounded=1;orthogonalLoop=1;jettySize=auto;html=1;exitX=1;exitY=0.5;exitDx=0;exitDy=0;shadow=0;strokeColor=#82b366;strokeWidth=1.9685;align=center;verticalAlign=middle;fontFamily=Helvetica;fontSize=13;fontColor=default;labelBackgroundColor=none;autosize=1;resizable=0;endArrow=classic;fillColor=#d5e8d4;fontStyle=1" parent="1" source="mtvK1GjAVpGi9GXHnzt9-35" target="mtvK1GjAVpGi9GXHnzt9-41" edge="1">
          <mxGeometry relative="1" as="geometry" />
        </mxCell>
        <mxCell id="mtvK1GjAVpGi9GXHnzt9-35" value="使用B的私钥为B签发证书" style="whiteSpace=wrap;html=1;rounded=1;align=center;verticalAlign=middle;fontFamily=Helvetica;fontSize=13;labelBackgroundColor=none;autosize=1;resizable=0;fillColor=#d5e8d4;strokeColor=#82b366;fontStyle=1" parent="1" vertex="1">
          <mxGeometry x="452.5" y="365" width="170" height="30" as="geometry" />
        </mxCell>
        <mxCell id="mtvK1GjAVpGi9GXHnzt9-36" style="edgeStyle=orthogonalEdgeStyle;curved=0;rounded=1;orthogonalLoop=1;jettySize=auto;html=1;entryX=0.5;entryY=0;entryDx=0;entryDy=0;shadow=0;strokeColor=#d6b656;strokeWidth=1.9685;align=center;verticalAlign=middle;fontFamily=Helvetica;fontSize=13;fontColor=default;labelBackgroundColor=none;autosize=1;resizable=0;endArrow=none;fillColor=#fff2cc;dashed=1;dashPattern=8 8;endFill=0;startArrow=none;startFill=0;fontStyle=1" parent="1" source="mtvK1GjAVpGi9GXHnzt9-38" target="mtvK1GjAVpGi9GXHnzt9-33" edge="1">
          <mxGeometry relative="1" as="geometry" />
        </mxCell>
        <mxCell id="mtvK1GjAVpGi9GXHnzt9-37" value="完全相同" style="edgeLabel;html=1;align=center;verticalAlign=middle;resizable=0;points=[];rounded=1;fontFamily=Helvetica;fontSize=13;labelBackgroundColor=none;autosize=1;fillColor=#fff2cc;strokeColor=#d6b656;fontStyle=1" parent="mtvK1GjAVpGi9GXHnzt9-36" vertex="1" connectable="0">
          <mxGeometry x="0.0003" width="80" height="30" relative="1" as="geometry">
            <mxPoint x="-40" y="-15" as="offset" />
          </mxGeometry>
        </mxCell>
        <mxCell id="mtvK1GjAVpGi9GXHnzt9-38" value="CA公钥" style="whiteSpace=wrap;html=1;fontFamily=Helvetica;fontSize=13;labelBackgroundColor=none;rounded=1;fillColor=#d5e8d4;strokeColor=#82b366;fontStyle=1" parent="1" vertex="1">
          <mxGeometry x="639.5" y="190" width="60" height="30" as="geometry" />
        </mxCell>
        <mxCell id="mtvK1GjAVpGi9GXHnzt9-39" style="edgeStyle=orthogonalEdgeStyle;shape=connector;curved=0;rounded=1;orthogonalLoop=1;jettySize=auto;html=1;exitX=0.5;exitY=1;exitDx=0;exitDy=0;shadow=0;strokeColor=#82b366;strokeWidth=1.9685;align=center;verticalAlign=middle;fontFamily=Helvetica;fontSize=13;fontColor=default;labelBackgroundColor=none;autosize=1;resizable=0;endArrow=classic;fillColor=#d5e8d4;fontStyle=1" parent="1" source="mtvK1GjAVpGi9GXHnzt9-41" target="mtvK1GjAVpGi9GXHnzt9-31" edge="1">
          <mxGeometry relative="1" as="geometry" />
        </mxCell>
        <mxCell id="mtvK1GjAVpGi9GXHnzt9-40" style="edgeStyle=orthogonalEdgeStyle;shape=connector;curved=1;rounded=1;orthogonalLoop=1;jettySize=auto;html=1;exitX=0;exitY=1;exitDx=0;exitDy=0;entryX=1;entryY=0.5;entryDx=0;entryDy=0;shadow=0;strokeColor=#82b366;strokeWidth=1.9685;align=center;verticalAlign=middle;fontFamily=Helvetica;fontSize=13;fontColor=default;labelBackgroundColor=none;autosize=1;resizable=0;endArrow=classic;fillColor=#d5e8d4;fontStyle=1" parent="1" source="mtvK1GjAVpGi9GXHnzt9-41" target="mtvK1GjAVpGi9GXHnzt9-33" edge="1">
          <mxGeometry relative="1" as="geometry" />
        </mxCell>
        <mxCell id="mtvK1GjAVpGi9GXHnzt9-41" value="&lt;span style=&quot;text-wrap: nowrap; font-size: 13px;&quot;&gt;从签发证书中获取B公钥&lt;/span&gt;&lt;br style=&quot;text-wrap: nowrap; font-size: 13px;&quot;&gt;&lt;span style=&quot;text-wrap: nowrap; font-size: 13px;&quot;&gt;与CA公钥进行比对&lt;/span&gt;" style="rounded=1;whiteSpace=wrap;html=1;align=center;verticalAlign=middle;fontFamily=Helvetica;fontSize=13;labelBackgroundColor=none;autosize=1;resizable=0;fillColor=#d5e8d4;strokeColor=#82b366;fontStyle=1" parent="1" vertex="1">
          <mxGeometry x="773.5" y="360" width="160" height="40" as="geometry" />
        </mxCell>
      </root>
    </mxGraphModel>
  </diagram>
</mxfile>
